<svg xmlns="http://www.w3.org/2000/svg" version="1.1" xmlns:xlink="http://www.w3.org/1999/xlink" xmlns:svgjs="http://svgjs.dev/svgjs" width="1000" height="1000" viewBox="0 0 1000 1000"><rect width="1000" height="1000" fill="#000000"></rect><g transform="matrix(0.7,0,0,0.7,149.57575757575756,294.8106637485059)"><svg viewBox="0 0 396 232" data-background-color="#dedede" preserveAspectRatio="xMidYMid meet" height="585" width="1000" xmlns="http://www.w3.org/2000/svg" xmlns:xlink="http://www.w3.org/1999/xlink"><g id="tight-bounds" transform="matrix(1,0,0,1,0.2400000000000091,0.24890356617004272)"><svg viewBox="0 0 395.52 231.50219286765991" height="231.50219286765991" width="395.52"><g><svg viewBox="0 0 395.52000000000004 231.50219286765994" height="231.50219286765991" width="395.52"><g transform="matrix(1,0,0,1,0,149.56150478019129)"><svg viewBox="0 0 395.52000000000004 81.94068808746866" height="81.94068808746866" width="395.52000000000004"><g><svg viewBox="0 0 395.52000000000004 81.94068808746866" height="81.94068808746866" width="395.52000000000004"><g><svg viewBox="0 0 395.52000000000004 55.95649065144417" height="55.95649065144417" width="395.52000000000004"><g transform="matrix(1,0,0,1,0,0)"><svg width="395.52000000000004" viewBox="0 0 303.7854309082031 42.97827911376953" height="55.95649065144417" data-palette-color="#000000"><g class="undefined-text-0" data-fill-palette-color="primary" id="text-0"><path d="M0 10.431l6.214-0.835 3.692 27.463 13.052-1.755-0.02 5.179-18.563 2.495z" fill="#ffffff" data-fill-palette-color="primary"></path><path d="M36.85 5.26c2.93-0.314 5.536 0.078 7.82 1.174 2.283 1.097 4.134 2.86 5.554 5.289 1.427 2.429 2.332 5.436 2.715 9.022v0c0.382 3.566 0.126 6.688-0.767 9.365-0.894 2.677-2.339 4.806-4.335 6.388-1.996 1.581-4.443 2.527-7.34 2.837v0c-2.93 0.314-5.539-0.074-7.828-1.164-2.283-1.097-4.144-2.859-5.585-5.285-1.44-2.427-2.352-5.437-2.736-9.03v0c-0.377-3.527-0.12-6.638 0.771-9.335 0.892-2.69 2.346-4.827 4.363-6.411 2.009-1.589 4.465-2.54 7.368-2.85zM37.361 10.032c-2.526 0.27-4.343 1.46-5.451 3.571-1.114 2.117-1.444 5.3-0.989 9.549v0c0.873 8.16 3.895 11.963 9.065 11.41v0c2.519-0.27 4.327-1.449 5.425-3.537 1.097-2.095 1.415-5.287 0.956-9.576v0c-0.455-4.249-1.44-7.281-2.955-9.097-1.515-1.816-3.532-2.589-6.051-2.32z" fill="#ffffff" data-fill-palette-color="primary"></path><path d="M81.541 2.08l1.717 22.033c0.172 2.213-0.143 4.217-0.946 6.012-0.796 1.794-2.08 3.251-3.852 4.372-1.772 1.121-3.954 1.782-6.546 1.985v0c-3.915 0.305-6.996-0.495-9.244-2.4-2.248-1.904-3.507-4.595-3.778-8.07v0l-1.717-22.034 6.261-0.487 1.691 21.704c0.18 2.306 0.796 3.99 1.848 5.051 1.052 1.061 2.572 1.515 4.559 1.36v0c2.021-0.157 3.468-0.842 4.344-2.053 0.875-1.212 1.223-2.971 1.043-5.277v0l-1.691-21.704z" fill="#ffffff" data-fill-palette-color="primary"></path><path d="M117.968 0.434l4.018 32.693-6.124 0.273-1.46-13.689c-0.505-4.889-0.821-8.775-0.949-11.659v0l-0.077-1.708-4.935 23.823-5.934 0.264-7.415-23.323c0.153 2.089 0.254 3.672 0.302 4.751v0c0.128 2.877 0.167 5.838 0.115 8.884v0l-0.206 13.572-6.074 0.271 1.147-32.924 8.072-0.359 6.867 22.717 4.481-23.222z" fill="#ffffff" data-fill-palette-color="primary"></path><path d="M151.661 32.791l-6.65 0.078-2.139-7.575-10.879 0.127-1.961 7.624-6.509 0.076 9.834-32.957 7.75-0.091zM137.173 4.919l-4.006 15.728 8.37-0.098z" fill="#ffffff" data-fill-palette-color="primary"></path><path d="M163.512 0.104c5.1 0.065 9.164 1.274 12.194 3.626 3.03 2.352 4.505 6.632 4.426 12.838v0c-0.078 6.086-1.64 10.353-4.685 12.801-3.038 2.448-6.871 3.642-11.497 3.583v0l-8.939-0.115 0.422-32.837zM164.542 4.817l-2.9-0.037-0.301 23.428 3.09 0.04c2.793 0.036 4.991-0.799 6.593-2.506 1.609-1.706 2.442-4.792 2.499-9.258v0c0.04-3.106-0.333-5.511-1.118-7.215-0.785-1.704-1.833-2.867-3.145-3.491-1.306-0.617-2.878-0.937-4.718-0.961z" fill="#ffffff" data-fill-palette-color="primary"></path><path d="M0 0" fill="#ffffff" data-fill-palette-color="secondary"></path><path d="M208.39 0.864c2.31 0.122 4.3 0.561 5.969 1.316 1.676 0.756 3.224 1.852 4.643 3.289v0l-3.274 3.402c-1.12-1.047-2.261-1.822-3.422-2.323-1.168-0.509-2.431-0.799-3.79-0.871v0c-1.518-0.08-2.761 0.198-3.729 0.835-0.975 0.63-1.494 1.56-1.559 2.791v0c-0.044 0.826 0.104 1.518 0.441 2.077 0.338 0.552 0.967 1.092 1.888 1.621 0.927 0.523 2.308 1.116 4.141 1.781v0c3.175 1.189 5.539 2.575 7.091 4.159 1.552 1.591 2.252 3.827 2.1 6.71v0c-0.103 1.957-0.694 3.669-1.773 5.134-1.079 1.472-2.573 2.585-4.482 3.338-1.916 0.753-4.155 1.063-6.718 0.928v0c-2.497-0.132-4.712-0.652-6.647-1.563-1.935-0.91-3.578-2.098-4.929-3.564v0l3.415-3.435c1.208 1.139 2.48 2.02 3.816 2.645 1.329 0.624 2.816 0.98 4.46 1.066v0c1.804 0.095 3.281-0.254 4.432-1.048 1.157-0.794 1.776-1.966 1.858-3.517v0c0.05-0.952-0.098-1.744-0.446-2.377-0.347-0.639-0.967-1.229-1.859-1.77-0.893-0.534-2.194-1.117-3.904-1.748v0c-3.425-1.262-5.873-2.693-7.344-4.293-1.471-1.6-2.142-3.635-2.011-6.104v0c0.095-1.804 0.651-3.36 1.668-4.669 1.024-1.315 2.401-2.307 4.133-2.976 1.738-0.669 3.682-0.947 5.832-0.834z" fill="#ffffff" data-fill-palette-color="secondary"></path><path d="M238.642 2.943c2.937 0.235 5.426 1.103 7.466 2.604 2.04 1.501 3.533 3.576 4.478 6.227 0.952 2.651 1.284 5.774 0.996 9.369v0c-0.286 3.575-1.116 6.595-2.491 9.06-1.374 2.465-3.189 4.289-5.443 5.474-2.255 1.184-4.834 1.66-7.739 1.427v0c-2.937-0.235-5.43-1.1-7.477-2.595-2.04-1.501-3.543-3.577-4.507-6.229-0.965-2.652-1.303-5.779-1.016-9.381v0c0.283-3.535 1.112-6.545 2.489-9.03 1.375-2.478 3.2-4.308 5.475-5.491 2.269-1.19 4.858-1.668 7.769-1.435zM238.259 7.728c-2.532-0.203-4.538 0.63-6.018 2.498-1.488 1.874-2.402 4.941-2.743 9.2v0c-0.654 8.181 1.61 12.478 6.794 12.893v0c2.525 0.202 4.521-0.621 5.986-2.47 1.466-1.856 2.371-4.933 2.715-9.233v0c0.341-4.26-0.065-7.422-1.217-9.487-1.152-2.065-2.991-3.199-5.517-3.401z" fill="#ffffff" data-fill-palette-color="secondary"></path><path d="M262.037 38.806l-6.235-0.663 3.473-32.656 18.476 1.965-1.148 4.554-11.585-1.232-1.04 9.785 10.073 1.071-0.493 4.634-10.073-1.071z" fill="#ffffff" data-fill-palette-color="secondary"></path><path d="M279.613 7.721l24.172 3.174-1.303 4.861-8.488-1.114-3.625 27.613-6.266-0.822 3.625-27.613-8.765-1.151z" fill="#ffffff" data-fill-palette-color="secondary"></path></g></svg></g></svg></g><g transform="matrix(1,0,0,1,118.31980800000001,60.65009801868215)"><svg viewBox="0 0 158.88038400000002 21.290590068786504" height="21.290590068786504" width="158.88038400000002"><g transform="matrix(1,0,0,1,0,0)"><svg width="158.88038400000002" viewBox="3.049999952316284 -40.849998474121094 308.1600036621094 41.29999923706055" height="21.290590068786504" data-palette-color="#61777f"><path d="M7.65 0L3.05 0 3.8-40.5 9.35-40.5 16.5-7.65 23.7-40.5 29.2-40.5 29.95 0 25.4 0 24.95-29.4 18.1 0 14.9 0 8.1-29.4 7.65 0ZM40.9 0.4L40.9 0.4Q39.2 0.4 37.9-0.58 36.6-1.55 35.85-3.08 35.1-4.6 35.1-6.3L35.1-6.3Q35.1-9 36-10.85 36.9-12.7 38.47-13.98 40.05-15.25 42.12-16.2 44.2-17.15 46.5-18.05L46.5-18.05 46.5-20.1Q46.5-21.85 46.3-23 46.1-24.15 45.47-24.73 44.85-25.3 43.6-25.3L43.6-25.3Q42.5-25.3 41.82-24.8 41.15-24.3 40.85-23.38 40.55-22.45 40.55-21.2L40.55-21.2 40.55-19.75 35.25-19.95Q35.35-24.75 37.45-27.03 39.55-29.3 43.95-29.3L43.95-29.3Q48.25-29.3 50.05-26.95 51.85-24.6 51.85-20.15L51.85-20.15 51.85-6.95Q51.85-5.6 51.92-4.35 52-3.1 52.12-2.02 52.25-0.95 52.35 0L52.35 0 47.45 0Q47.3-0.8 47.07-2.02 46.85-3.25 46.75-4.25L46.75-4.25Q46.25-2.55 44.82-1.07 43.4 0.4 40.9 0.4ZM43-4.2L43-4.2Q43.8-4.2 44.5-4.65 45.2-5.1 45.75-5.68 46.3-6.25 46.5-6.6L46.5-6.6 46.5-14.8Q45.25-14.1 44.15-13.4 43.05-12.7 42.22-11.93 41.4-11.15 40.92-10.18 40.45-9.2 40.45-7.95L40.45-7.95Q40.45-6.2 41.1-5.2 41.75-4.2 43-4.2ZM63.7 0.4L63.7 0.4Q60.05 0.4 58.25-2.27 56.45-4.95 56.45-11.35L56.45-11.35 56.45-16.95Q56.45-20.25 57-23.08 57.55-25.9 59.07-27.6 60.59-29.3 63.55-29.3L63.55-29.3Q65-29.3 66.2-28.65 67.4-28 68.34-27.05L68.34-27.05 68.34-40.5 73.7-40.5 73.7 0 68.34 0 68.34-1.85Q67.4-0.85 66.27-0.23 65.15 0.4 63.7 0.4ZM65.05-3.8L65.05-3.8Q65.8-3.8 66.65-4.08 67.5-4.35 68.34-4.9L68.34-4.9 68.34-23.85Q67.65-24.35 66.8-24.73 65.95-25.1 64.95-25.1L64.95-25.1Q63.09-25.1 62.45-23.33 61.8-21.55 61.8-19.05L61.8-19.05 61.8-10.9Q61.8-8.9 62.02-7.28 62.25-5.65 62.95-4.73 63.65-3.8 65.05-3.8ZM97.59 0L92.24 0 92.24-24.95 88.79-24.95 88.79-28.9 92.24-28.9 92.24-30.4Q92.24-33.1 92.67-35.02 93.09-36.95 94.44-38 95.79-39.05 98.49-39.05L98.49-39.05Q99.49-39.05 100.27-38.98 101.04-38.9 101.99-38.7L101.99-38.7 101.99-34.8Q101.54-34.9 100.99-34.98 100.44-35.05 99.99-35.05L99.99-35.05Q98.44-35.05 98.02-34.02 97.59-33 97.59-31.3L97.59-31.3 97.59-28.9 101.99-28.9 101.99-24.95 97.59-24.95 97.59 0ZM112.84 0.4L112.84 0.4Q109.64 0.4 107.79-0.9 105.94-2.2 105.16-4.6 104.39-7 104.39-10.25L104.39-10.25 104.39-18.65Q104.39-21.9 105.16-24.3 105.94-26.7 107.79-28 109.64-29.3 112.84-29.3L112.84-29.3Q116.04-29.3 117.86-28 119.69-26.7 120.46-24.3 121.24-21.9 121.24-18.65L121.24-18.65 121.24-10.25Q121.24-7 120.46-4.6 119.69-2.2 117.86-0.9 116.04 0.4 112.84 0.4ZM112.84-3.55L112.84-3.55Q114.39-3.55 115.01-4.45 115.64-5.35 115.76-6.83 115.89-8.3 115.89-9.9L115.89-9.9 115.89-18.95Q115.89-20.6 115.76-22.05 115.64-23.5 115.01-24.43 114.39-25.35 112.84-25.35L112.84-25.35Q111.29-25.35 110.64-24.43 109.99-23.5 109.86-22.05 109.74-20.6 109.74-18.95L109.74-18.95 109.74-9.9Q109.74-8.3 109.86-6.83 109.99-5.35 110.64-4.45 111.29-3.55 112.84-3.55ZM131.64 0L126.29 0 126.29-28.9 131.64-28.9 131.64-24.8Q133.24-27.45 134.84-28.35 136.44-29.25 138.04-29.25L138.04-29.25Q138.24-29.25 138.41-29.25 138.59-29.25 138.89-29.2L138.89-29.2 138.89-23.3Q138.29-23.55 137.51-23.73 136.74-23.9 135.94-23.9L135.94-23.9Q134.69-23.9 133.66-23.33 132.64-22.75 131.64-21.1L131.64-21.1 131.64 0ZM163.63 0.45L163.63 0.45Q160.13 0.45 157.81-1.05 155.48-2.55 154.28-5.2 153.08-7.85 152.88-11.35L152.88-11.35 157.88-12.7Q158.03-10.55 158.56-8.55 159.08-6.55 160.28-5.28 161.48-4 163.63-4L163.63-4Q165.83-4 166.96-5.23 168.08-6.45 168.08-8.75L168.08-8.75Q168.08-11.5 166.83-13.18 165.58-14.85 163.68-16.55L163.68-16.55 156.88-22.55Q154.88-24.3 153.93-26.38 152.98-28.45 152.98-31.5L152.98-31.5Q152.98-35.95 155.53-38.4 158.08-40.85 162.48-40.85L162.48-40.85Q164.88-40.85 166.71-40.23 168.53-39.6 169.76-38.3 170.98-37 171.71-35.02 172.43-33.05 172.68-30.4L172.68-30.4 167.88-29.1Q167.73-31.1 167.28-32.77 166.83-34.45 165.71-35.48 164.58-36.5 162.48-36.5L162.48-36.5Q160.38-36.5 159.21-35.38 158.03-34.25 158.03-32.05L158.03-32.05Q158.03-30.2 158.66-29 159.28-27.8 160.68-26.55L160.68-26.55 167.53-20.55Q169.83-18.55 171.58-15.78 173.33-13 173.33-9.2L173.33-9.2Q173.33-6.2 172.08-4.03 170.83-1.85 168.66-0.7 166.48 0.45 163.63 0.45ZM185.23 0.4L185.23 0.4Q182.03 0.4 180.18-0.9 178.33-2.2 177.55-4.6 176.78-7 176.78-10.25L176.78-10.25 176.78-18.65Q176.78-21.9 177.55-24.3 178.33-26.7 180.18-28 182.03-29.3 185.23-29.3L185.23-29.3Q188.43-29.3 190.25-28 192.08-26.7 192.85-24.3 193.63-21.9 193.63-18.65L193.63-18.65 193.63-10.25Q193.63-7 192.85-4.6 192.08-2.2 190.25-0.9 188.43 0.4 185.23 0.4ZM185.23-3.55L185.23-3.55Q186.78-3.55 187.4-4.45 188.03-5.35 188.15-6.83 188.28-8.3 188.28-9.9L188.28-9.9 188.28-18.95Q188.28-20.6 188.15-22.05 188.03-23.5 187.4-24.43 186.78-25.35 185.23-25.35L185.23-25.35Q183.68-25.35 183.03-24.43 182.38-23.5 182.25-22.05 182.13-20.6 182.13-18.95L182.13-18.95 182.13-9.9Q182.13-8.3 182.25-6.83 182.38-5.35 183.03-4.45 183.68-3.55 185.23-3.55ZM205.58 0L200.23 0 200.23-24.95 196.78-24.95 196.78-28.9 200.23-28.9 200.23-30.4Q200.23-33.1 200.65-35.02 201.08-36.95 202.43-38 203.78-39.05 206.48-39.05L206.48-39.05Q207.48-39.05 208.25-38.98 209.03-38.9 209.98-38.7L209.98-38.7 209.98-34.8Q209.53-34.9 208.98-34.98 208.43-35.05 207.98-35.05L207.98-35.05Q206.43-35.05 206-34.02 205.58-33 205.58-31.3L205.58-31.3 205.58-28.9 209.98-28.9 209.98-24.95 205.58-24.95 205.58 0ZM220.57 0.4L220.57 0.4Q218.32 0.4 216.95-0.45 215.57-1.3 214.95-2.85 214.32-4.4 214.32-6.5L214.32-6.5 214.32-25.35 211.27-25.35 211.27-28.9 214.32-28.9 214.32-37.35 219.67-37.35 219.67-28.9 224.32-28.9 224.32-25.35 219.67-25.35 219.67-6.85Q219.67-5.15 220.22-4.42 220.77-3.7 222.32-3.7L222.32-3.7Q222.72-3.7 223.25-3.75 223.77-3.8 224.27-3.85L224.27-3.85 224.27 0.1Q223.27 0.25 222.42 0.33 221.57 0.4 220.57 0.4ZM236.42 0L231.62 0 226.97-28.9 231.37-28.9 234.37-7.6 238.22-28.9 242.32-28.9 246.17-7.7 249.17-28.9 253.57-28.9 248.77 0 244.27 0 240.32-20.4 236.42 0ZM262.87 0.4L262.87 0.4Q261.17 0.4 259.87-0.58 258.57-1.55 257.82-3.08 257.07-4.6 257.07-6.3L257.07-6.3Q257.07-9 257.97-10.85 258.87-12.7 260.44-13.98 262.02-15.25 264.09-16.2 266.17-17.15 268.47-18.05L268.47-18.05 268.47-20.1Q268.47-21.85 268.27-23 268.07-24.15 267.44-24.73 266.82-25.3 265.57-25.3L265.57-25.3Q264.47-25.3 263.79-24.8 263.12-24.3 262.82-23.38 262.52-22.45 262.52-21.2L262.52-21.2 262.52-19.75 257.22-19.95Q257.32-24.75 259.42-27.03 261.52-29.3 265.92-29.3L265.92-29.3Q270.22-29.3 272.02-26.95 273.82-24.6 273.82-20.15L273.82-20.15 273.82-6.95Q273.82-5.6 273.89-4.35 273.97-3.1 274.09-2.02 274.22-0.95 274.32 0L274.32 0 269.42 0Q269.27-0.8 269.04-2.02 268.82-3.25 268.72-4.25L268.72-4.25Q268.22-2.55 266.79-1.07 265.37 0.4 262.87 0.4ZM264.97-4.2L264.97-4.2Q265.77-4.2 266.47-4.65 267.17-5.1 267.72-5.68 268.27-6.25 268.47-6.6L268.47-6.6 268.47-14.8Q267.22-14.1 266.12-13.4 265.02-12.7 264.19-11.93 263.37-11.15 262.89-10.18 262.42-9.2 262.42-7.95L262.42-7.95Q262.42-6.2 263.07-5.2 263.72-4.2 264.97-4.2ZM284.47 0L279.12 0 279.12-28.9 284.47-28.9 284.47-24.8Q286.07-27.45 287.67-28.35 289.27-29.25 290.87-29.25L290.87-29.25Q291.07-29.25 291.24-29.25 291.42-29.25 291.72-29.2L291.72-29.2 291.72-23.3Q291.12-23.55 290.34-23.73 289.57-23.9 288.77-23.9L288.77-23.9Q287.52-23.9 286.49-23.33 285.47-22.75 284.47-21.1L284.47-21.1 284.47 0ZM303.01 0.4L303.01 0.4Q299.61 0.4 297.76-0.93 295.91-2.25 295.19-4.83 294.46-7.4 294.46-11.15L294.46-11.15 294.46-17.75Q294.46-21.6 295.21-24.15 295.96-26.7 297.84-28 299.71-29.3 303.01-29.3L303.01-29.3Q306.66-29.3 308.39-27.8 310.11-26.3 310.66-23.48 311.21-20.65 311.21-16.7L311.21-16.7 311.21-14.35 299.81-14.35 299.81-8.55Q299.81-6.8 300.14-5.7 300.46-4.6 301.19-4.08 301.91-3.55 303.06-3.55L303.06-3.55Q304.26-3.55 304.89-4.13 305.51-4.7 305.74-5.78 305.96-6.85 305.96-8.3L305.96-8.3 305.96-10.05 311.16-10.05 311.16-8.95Q311.16-4.6 309.31-2.1 307.46 0.4 303.01 0.4ZM299.81-18.8L299.81-17.25 305.96-17.25 305.96-19.85Q305.96-21.65 305.76-22.88 305.56-24.1 304.94-24.73 304.31-25.35 302.96-25.35L302.96-25.35Q301.66-25.35 300.99-24.75 300.31-24.15 300.06-22.73 299.81-21.3 299.81-18.8L299.81-18.8Z" opacity="1" transform="matrix(1,0,0,1,0,0)" fill="#ffffff" class="undefined-text-1" data-fill-palette-color="secondary" id="text-1"></path></svg></g></svg></g></svg></g></svg></g><g transform="matrix(1,0,0,1,131.4722011045912,0)"><svg viewBox="0 0 132.57559779081762 132.58003332552428" height="132.58003332552428" width="132.57559779081762"><g><svg xmlns="http://www.w3.org/2000/svg" xmlns:xlink="http://www.w3.org/1999/xlink" version="1.1" x="0" y="0" viewBox="5.303999900817871 5.303999900817871 89.3909912109375 89.39398193359375" enable-background="new 0 0 100 100" xml:space="preserve" height="132.58003332552428" width="132.57559779081762" class="icon-icon-0" data-fill-palette-color="accent" id="icon-0"><g fill="#0d67b5" data-fill-palette-color="accent"><path d="M91.715 36.165h-0.105v-6.172h-3.086V23.82h-3.086v-3.086h-3.086v-3.086h-3.086v-3.086h-3.088v-3.086h-3.084V8.39h-9.258V5.304h-27.67V8.39h-9.257v3.087h-3.088v3.086h-3.085v3.086h-3.087v3.087h-3.087v3.085h-3.085v6.173H8.39v6.172H5.304v30.756H8.39v6.172h3.087v3.086h3.085v6.173h3.087v3.087h2.979 0.107 2.979 0.106l0 0v3.086h3.088v3.086h9.257v3.086h27.67V91.61h9.258v-3.086h3.084v-3.086h6.174v-3.087h3.086v-6.173h3.086v-3.086h3.086v-6.172h3.086V36.165H91.715zM91.715 46.411v4.664 12.866h-3.086v6.173h-3.086v2.979V73.2h-0.105-2.59-0.391v1.248 1.73 0.107 2.979 0.106h-0.105-1.977-1.004v0.551 2.535h-6.172v3.086h-3.086v3.086h-9.26v3.086H39.145V91.61v-1.178V88.63h-9.258v-0.105V87.55v-2.006h-1.36-1.618-0.107v-0.105-1.49-1.49H25.31h-1.489-0.106-2.979-0.107v-0.106-1.286-1.693h-3.086V73.2h-3.086v-3.086H11.37v-6.173H8.285V39.146l0 0h3.085v-6.172l0 0h0.107 2.979v-6.173l0 0h3.086v-3.086l0 0h3.086v-2.979-0.106l0 0h0.107l0 0h2.979v-2.98-0.105h3.087v-3.087l0 0h3.086v-3.085h9.258V8.284l0 0h21.707l0.002 3.086h9.254l0.006 3.086h3.086v3.087h3.086v3.086h3.086v3.086h3.086v3.086h3.086v6.173h3.086v6.172h3.086V46.411z" fill="#ffffff" data-fill-palette-color="accent"></path><rect x="45.424" y="57.769" width="9.152" height="2.98" fill="#ffffff" data-fill-palette-color="accent"></rect><g fill="#0d67b5" data-fill-palette-color="accent"><polygon points="42.22,29.993 29.981,29.993 29.981,32.974 33.069,32.974 33.069,51.49 39.134,51.49 39.134,32.974 42.22,32.974       " fill="#ffffff" data-fill-palette-color="accent"></polygon><polygon points="70.018,29.993 57.779,29.993 57.779,32.974 60.865,32.974 60.865,51.49 66.932,51.49 66.932,32.974     70.018,32.974   " fill="#ffffff" data-fill-palette-color="accent"></polygon></g></g></svg></g></svg></g><g></g></svg></g><defs></defs></svg><rect width="395.52" height="231.50219286765991" fill="none" stroke="none" visibility="hidden"></rect></g></svg></g></svg>